Genre:Action | Crime | Drama
Language:English
IMDb: 
http://www.imdb.com/title/tt1707687/
Source:BluRay.720p.DTS.x264-CHD


Format : MPEG-4
Format profile : Base Media
Codec ID : isom
File size : 2.20 GiB
Duration : 1h 32mn
Overall bit rate : 3 412 Kbps


Video
Format profile : High@L4.1
Format settings, CABAC : Yes
Format settings, ReFrames : 3 frames
Codec ID : avc1
Codec ID/Info : Advanced Video Coding
Duration : 1h 32mn
Bit rate mode : Variable
Bit rate : 3 000 Kbps
Maximum bit rate : 15.8 Mbps
Width : 1 280 pixels
Height : 720 pixels
Display aspect ratio : 16:9
Frame rate mode : Constant
Frame rate : 23.976 fps
Color space : YUV
Chroma subsampling : 4:2:0
Bit depth : 8 bits
Scan type : Progressive
Bits/(Pixel*Frame) : 0.136
Stream size : 1.92 GiB (87%)
Writing library : x264


Audio
ID : 2
Format : AAC
Format/Info : Advanced Audio Codec
Format version : Version 4
Format profile : LC
Format settings, SBR : No
Codec ID : 40
Duration : 1h 32mn
Bit rate mode : Variable
Bit rate : 437 Kbps
Maximum bit rate : 521 Kbps
Channel(s) : 6 channels
Channel positions : Front: L C R, Side: L R, LFE
Sampling rate : 48.0 KHz
Stream size : 289 MiB (13%)


Plot:
Motor City moves the action to Michigan and explores the world of
dirty cops on the violent streets of Detroit. Marty Kingston
(Liotta) is an undercover narcotics detective who is shot and barely
survives a drug bust gone wrong to save the life of his partner.
When his partner is killed by a masked gunman four years later,
Marty must team up with the hotheaded homicide detective Dan
Sullivan (Hatosy) to investigate a string of brutal cop murders and
hunt down the cop killer. The investigation that ensues is shrouded
in deception and loaded with plot twists that question the line
between the rules of law and justice.